<svg xmlns="http://www.w3.org/2000/svg" version="1.1" xmlns:xlink="http://www.w3.org/1999/xlink" xmlns:svgjs="http://svgjs.dev/svgjs" width="2000" height="611" viewBox="0 0 2000 611"><g transform="matrix(1,0,0,1,-1.2121212121212466,0.9599578132024362)"><svg viewBox="0 0 396 121" data-background-color="#ffffff" preserveAspectRatio="xMidYMid meet" height="611" width="2000" xmlns="http://www.w3.org/2000/svg" xmlns:xlink="http://www.w3.org/1999/xlink"><g id="tight-bounds" transform="matrix(1,0,0,1,0.2400000000000091,-0.1901062117798631)"><svg viewBox="0 0 395.52 121.38021242355971" height="121.38021242355971" width="395.52"><g><svg viewBox="0 0 395.52 121.38021242355971" height="121.38021242355971" width="395.52"><g><svg viewBox="0 0 395.52 121.38021242355971" height="121.38021242355971" width="395.52"><g id="textblocktransform"><svg viewBox="0 0 395.52 121.38021242355971" height="121.38021242355971" width="395.52" id="textblock"><g><svg viewBox="0 0 395.52 121.38021242355971" height="121.38021242355971" width="395.52"><g transform="matrix(1,0,0,1,0,0)"><svg width="395.52" viewBox="0.71 -36.55 151.69 46.559999999999995" height="121.38021242355971" data-palette-color="#111111"><path d="M20.7 0L15.65 0Q13.23 0 11.11-0.92 8.98-1.83 7.39-3.43 5.79-5.03 4.87-7.15 3.96-9.28 3.96-11.69L3.96-11.69 3.96-19.46 0.71-19.46 0.71-26.1 3.96-26.1 3.96-36.55 10.6-36.55 10.6-26.1 20.7-26.1 20.7-19.46 10.6-19.46 10.6-11.69Q10.6-10.64 10.99-9.73 11.38-8.81 12.06-8.13 12.74-7.45 13.67-7.04 14.6-6.64 15.65-6.64L15.65-6.64 20.7-6.64 20.7 0ZM31.1-14.4L31.1 0 24.44 0 24.44-26.15 26.05-26.15 28.24-23.05Q29.86-24.51 31.91-25.31 33.96-26.1 36.15-26.1L36.15-26.1 42.04-26.1 42.04-19.46 36.15-19.46Q35.1-19.46 34.18-19.07 33.25-18.68 32.57-17.99 31.88-17.31 31.49-16.38 31.1-15.45 31.1-14.4L31.1-14.4ZM67.55-21.46L55.05-6.4Q55.44-6.27 55.83-6.24 56.22-6.2 56.61-6.2L56.61-6.2Q57.59-6.2 58.49-6.47 59.39-6.74 60.19-7.24 60.98-7.74 61.6-8.46 62.23-9.18 62.62-10.06L62.62-10.06 67.5-5.15Q66.57-3.83 65.36-2.78 64.16-1.73 62.75-1 61.35-0.27 59.8 0.11 58.25 0.49 56.61 0.49L56.61 0.49Q53.85 0.49 51.42-0.54 48.99-1.56 47.18-3.39 45.36-5.22 44.31-7.75 43.26-10.28 43.26-13.31L43.26-13.31Q43.26-16.41 44.31-18.97 45.36-21.53 47.18-23.34 48.99-25.15 51.42-26.15 53.85-27.15 56.61-27.15L56.61-27.15Q58.25-27.15 59.81-26.76 61.37-26.37 62.78-25.63 64.18-24.9 65.4-23.84 66.62-22.78 67.55-21.46L67.55-21.46ZM50.7-9.84L58.47-20.14Q58-20.31 57.55-20.36 57.1-20.41 56.61-20.41L56.61-20.41Q55.24-20.41 54.04-19.91 52.83-19.41 51.94-18.48 51.04-17.55 50.53-16.25 50.02-14.94 50.02-13.31L50.02-13.31Q50.02-12.94 50.06-12.48 50.09-12.01 50.18-11.54 50.26-11.06 50.39-10.62 50.51-10.18 50.7-9.84L50.7-9.84ZM77.56-14.94L77.56 0 70.89 0 70.89-26.15 72.5-26.15 74.7-23.61Q76.31-25.07 78.35-25.87 80.39-26.66 82.61-26.66L82.61-26.66Q85-26.66 87.13-25.74 89.25-24.83 90.84-23.23 92.42-21.63 93.34-19.49 94.26-17.36 94.26-14.94L94.26-14.94 94.26 0 87.59 0 87.59-14.94Q87.59-15.97 87.2-16.88 86.81-17.8 86.13-18.48 85.44-19.17 84.54-19.56 83.64-19.95 82.61-19.95L82.61-19.95Q81.56-19.95 80.63-19.56 79.7-19.17 79.02-18.48 78.34-17.8 77.95-16.88 77.56-15.97 77.56-14.94L77.56-14.94ZM124.26-36.55L124.26 0 122.65 0 120.06-3.59Q119.11-2.73 118.04-1.99 116.98-1.25 115.81-0.7 114.64-0.15 113.41 0.17 112.17 0.49 110.9 0.49L110.9 0.49Q108.14 0.49 105.72-0.55 103.29-1.59 101.47-3.43 99.65-5.27 98.6-7.8 97.55-10.33 97.55-13.31L97.55-13.31Q97.55-16.26 98.6-18.8 99.65-21.34 101.47-23.19 103.29-25.05 105.72-26.1 108.14-27.15 110.9-27.15L110.9-27.15Q111.78-27.15 112.72-27 113.66-26.86 114.55-26.53 115.44-26.2 116.23-25.66 117.01-25.12 117.54-24.34L117.54-24.34 117.54-36.55 124.26-36.55ZM117.54-13.31L117.54-13.31Q117.54-14.67 117.02-15.95 116.49-17.24 115.59-18.23 114.69-19.21 113.48-19.81 112.27-20.41 110.9-20.41L110.9-20.41Q109.54-20.41 108.33-19.92 107.12-19.43 106.23-18.52 105.34-17.6 104.82-16.28 104.31-14.97 104.31-13.31L104.31-13.31Q104.31-11.87 104.82-10.57 105.34-9.28 106.23-8.3 107.12-7.32 108.33-6.76 109.54-6.2 110.9-6.2L110.9-6.2Q112.27-6.2 113.48-6.8 114.69-7.4 115.59-8.39 116.49-9.38 117.02-10.66 117.54-11.94 117.54-13.31ZM139.05 10.01L135.63 9.96 135.63 3.25 139.34 3.3Q140.32 3.3 141.22 2.98 142.13 2.66 142.9 2.1 143.66 1.54 144.25 0.77 144.84 0 145.2-0.9L145.2-0.9Q144.1-0.44 142.97 0.02 141.83 0.49 140.69 0.49L140.69 0.49Q138.27 0.49 136.14-0.37 134.02-1.22 132.42-2.8 130.82-4.37 129.91-6.63 128.99-8.89 128.99-11.69L128.99-11.69 128.99-26.15 135.63-26.15 135.63-11.69Q135.63-10.3 136.03-9.27 136.44-8.23 137.12-7.53 137.8-6.84 138.72-6.49 139.64-6.15 140.69-6.15L140.69-6.15Q141.71-6.15 142.63-6.63 143.54-7.1 144.23-7.89 144.91-8.67 145.3-9.66 145.69-10.64 145.69-11.69L145.69-11.69 145.69-26.15 152.4-26.15 152.4-3.3Q152.38-0.54 151.33 1.88 150.28 4.3 148.46 6.1 146.64 7.91 144.23 8.96 141.81 10.01 139.05 10.01L139.05 10.01Z" opacity="1" transform="matrix(1,0,0,1,0,0)" fill="#111111" class="wordmark-text-0" data-fill-palette-color="primary" id="text-0"></path></svg></g></svg></g></svg></g></svg></g></svg></g><defs></defs></svg><rect width="395.52" height="121.38021242355971" fill="none" stroke="none" visibility="hidden"></rect></g></svg></g></svg>